<svg width="160" height="160" viewBox="-8 0 168 160" fill="none" xmlns="http://www.w3.org/2000/svg">
    <path d="M37 88H117C132 88 144 76 144 61C144 46 132 34 117 34C112 34 108 35 104 37C96 23 81 14 63 14C40 14 21 30 17 52C5 55 -4 65 -4 77C-4 91 8 102 23 102H37Z" fill="#C7D3E8"/>
    <g stroke="#DCEEFF" stroke-width="6" stroke-linecap="round">
        <path d="M47 119V141"/>
        <path d="M38 124L56 135"/>
        <path d="M56 124L38 135"/>
        <path d="M86 114V136"/>
        <path d="M77 119L95 130"/>
        <path d="M95 119L77 130"/>
        <path d="M123 107V129"/>
        <path d="M114 112L132 123"/>
        <path d="M132 112L114 123"/>
    </g>
</svg>
